<?xml version="1.0" encoding="UTF-8"?>
<svg width="850pt" height="850pt" version="1.1" viewBox="0 0 850 850" xmlns="http://www.w3.org/2000/svg">
    <defs>
        <style type="text/css">
            .top {
            fill:#6b7280;
            stroke: black;
            stroke-width: 2;
            }
            .left {
            fill: #4b5563;
            stroke: black;
            stroke-width: 2;
            }
            .right {
            fill:#1f2937;
            stroke: black;
            stroke-width: 2;
            }

            @media (prefers-color-scheme: dark) {
            .top {
            fill:#f9fafb;
            stroke: white;
            stroke-width: 2;
            }
            .left {
            fill: #e5e7eb;
            stroke: white;
            stroke-width: 2;
            }
            .right {
            fill: #9ca3af;
            stroke: white;
            stroke-width: 2;
            }
            }
        </style>
        <style type="text/css">
            .logic {
            fill: #4b5563;
            stroke: #374151;
            stroke-width: 4;
            }
            .logicBackground {
            fill: #e5e7eb;
            stroke: #374151;
            stroke-width: 8;
            }
            @media (prefers-color-scheme: dark) {
            .logic {
            fill: #374151;
            stroke: #374151;
            stroke-width: 4;
            }
            .logicBackground {
            fill: #f9fafb;
            stroke: #374151;
            stroke-width: 8;
            }
            }
        </style>
    </defs>
    <g>
        <path class="top"
              d="M 230 280 l 157.18 72.352 c 20.668 9.5156 54.496 9.5156 75.145 0 l 132.64 -61.055 l 217.53 -103.74 c -4.5742 -3.4336 -9.25 -6.5156 -14.191 -8.7734 l -317.09 -146.01 c -30.992 -14.277 -81.746 -14.277 -112.76 0 l -317.19 146.01 c -5.0703 2.3164 -9.8672 5.5234 -14.543 9.0625 z"/>
        <path class="left"
              d="m 423.34 420.96 c 0 -22.801 -16.902 -49.16 -37.574 -58.695 l -239.42 -110.15 c -0.207 -0.082 -0.3711 -0.25 -0.5781 -0.3516 l -108.25 -49.883 v 372.25 c 0 34.137 25.387 73.738 56.398 88.035 l 317.19 146.03 c 2.8125 1.3047 5.957 2.3398 9.0625 3.3945 l 3.1445 -193.8 l 0.0039 -196.82 z"/>
        <path class="right"
              d="m 708.59 250.96 c -0.4336 0.2266 -0.8086 0.5391 -1.2812 0.7656 l -239.46 110.21 c -20.691 9.4961 -37.574 35.918 -37.574 58.676 v 162.12 l 0.4766 -0.0195 l -0.7461 229.8 c 4.4688 -1.3438 8.7109 -2.9375 12.621 -4.7383 l 317.17 -146.03 c 30.992 -14.277 56.398 -53.875 56.398 -88.035 l -0.0625 -372.39 z"/>
        <path class="logicBackground"
              d="m 377.4 463.2 L 804.2 463.2 C 821.8 463.2 828.4 469.8 828.4 487.4 L 828.4 783.3 C 828.4 799.8 821.8 806.4 805.3 806.4 L 377.4 806.4 C 359.8 806.4 353.2 799.8 353.2 783.3 L 353.2 487.4 C 353.2 469.8 359.8 463.2 377.4 463.2"/>
        <path class="logic"
              d="m 379.6 516 L 392.8 529.2 L 379.6 542.4 L 392.8 529.2 M 399.4 529.2 L 399.4 529.2 L 498.4 529.2 M 505 489.6 L 505 568.8 L 597.4 529.2 L 505 489.6 M 598.72 529.2 L 663.4 529.2 L 663.4 588.6 L 742.6 588.6 L 663.4 588.6 L 663.4 529.2 M 749.2 575.4 C 782.2 575.4 808.6 595.2 808.6 621.6 C 808.6 648 782.2 667.8 749.2 667.8 L 749.2 575.4 M 742.6 654.6 L 663.4 654.6 L 663.4 727.2 L 598.72 727.2 L 663.4 727.2 L 663.4 654.6 M 597.4 727.2 C 597.4 700.8 571 681 538 681 L 538 773.4 C 571 773.4 597.4 753.6 597.4 727.2 M 531.4 694.2 L 399.4 694.2 M 531.4 760.2 L 399.4 760.2 M 379.6 681 L 392.8 694.2 L 379.6 707.4 L 392.8 694.2 M 379.6 747 L 392.8 760.2 L 379.6 773.4 L 392.8 760.2 M 532.72 694.2 C 532.72 691.56 535.36 690.24 536.68 690.24 L 536.68 699.48 C 535.36 699.48 532.72 698.16 532.72 694.2 M 532.72 760.2 C 532.72 757.56 535.36 756.24 536.68 756.24 L 536.68 764.16 C 535.36 764.16 532.72 762.84 532.72 760.2 M 743.92 588.6 C 743.92 585.96 746.56 584.64 747.88 584.64 L 747.88 592.56 C 746.56 592.56 743.92 591.24 743.92 588.6 M 743.92 654.6 C 743.92 651.96 746.56 650.64 747.88 650.64 L 747.88 658.56 C 746.56 658.56 743.92 657.24 743.92 654.6 M 499.72 529.2 C 499.72 526.56 502.36 525.24 503.68 525.24 L 503.68 533.16 C 502.36 533.16 499.72 531.84 499.72 529.2 z"/>
    </g>
</svg>
